<svg xmlns="http://www.w3.org/2000/svg" width="226.528" height="395.474" viewBox="0 0 226.528 395.474"><defs><style>.a{fill:#f5f5f5;}.b{fill:#e0e0e0;}.c{fill:#fff;}.d{fill:#fafafa;}.e{fill:#ebebeb;}.f{fill:#263238;}.g{fill:#455a64;}.h,.r{opacity:0.6;}.i{fill:#ffbe9d;}.j{fill:#e9a27e;}.k{fill:#65463c;}.l{fill:#d6ac38;}.m{opacity:0.3;}.n{fill:#8a8a8a;}.o{fill:#37474f;}.p{fill:#ba68c8;}.q,.u{fill:#4fa206;}.q{opacity:0.72;}.r,.s{fill:#588d22;}.s{opacity:0.5;}.t{fill:#4a920a;opacity:0.88;}.v{fill:#4c9c07;opacity:0.79;}</style></defs><g transform="translate(-1676.837 -679.38)"><g transform="translate(61.176 27.381)"><g transform="translate(1697.805 652)"><path class="a" d="M602.5,372.94V400.4h84.449V372.94Z" transform="translate(-565.406 -83.337)"/><path class="b" d="M598.61,364.52v7.674h90.948V364.52H598.61Z" transform="translate(-565.062 -82.591)"/><path class="b" d="M648.328,399.654h42.525v-27.46h2.953V364.52H646.56v6.963Z" transform="translate(-569.311 -82.591)"/><rect class="b" width="17.125" height="4.138" transform="translate(48.905 294.033)"/><rect class="c" width="21.992" height="8.731" transform="translate(46.7 303.329)"/><path class="b" d="M696.02,431.274,694.252,55.18h-7.291v74.069h-18.8l-.346-74.069h-7.291v74.069H595.813l-.346-74.069h-7.291v74.069H569.437l-.346-74.069H561.8V431.274h9.059l-.246-50.473h17.572v50.473h9.05L597,380.8h63.524v50.473h9.059l-.246-50.473h17.626v50.473ZM578.934,330.967l-6.507-27.879h13.361Zm9.26-26.175v65.848l-7.884-33.767Zm0-95.7-7.883-33.776,7.884-32.072Zm-1.413,6.043H570.522l8.339-33.922ZM578.934,169.4l-7.455-31.9h15.3Zm-1.458,5.924-7.683,31.261-.31-65.492Zm-7.2,130.63,7.2,30.905-6.936,28.253Zm8.585,36.811,6.963,29.821H571.534Zm-8.348-47.894-.064-.255-.264.1-.337-71.325h18.31v71.526Zm25.756-71.526h64.262v71.526H596.615Zm80.858-42.152,7.893,33.931H668.8Zm-8.613,23.541-.292-61.692,7.528,32.281Zm18.456,6.526-8.394-35.936,8.394-34.15Zm0,3.746v.118h-.51Zm0,91.75v61.838l-7.419-31.716Zm-8.786,24.216-6.5-27.879H685.02ZM677.2,169.4l-7.455-31.9H685.02Zm9.77,53.945v71.526H669.763l-.055-.255-.766.182-.337-71.453ZM676.744,336.854,669.28,367.2l-.292-63.588Zm1.376,5.906,6.954,29.821H670.793Zm-17.59-205.291v77.65h-64.3l-.374-77.65ZM598.137,372.608H596.97l-.355-69.521H660.5v69.493Z" transform="translate(-561.8 -55.18)"/><rect class="b" width="12.03" height="56.06" transform="translate(81.059 104.208)"/><path class="d" d="M659.756,216.039a2.388,2.388,0,1,1-2.379-2.379,2.387,2.387,0,0,1,2.379,2.379Z" transform="translate(-570.057 -69.223)"/><rect class="d" width="3.682" height="22.912" transform="translate(85.379 119.064)"/><rect class="e" width="12.03" height="56.06" transform="translate(68.846 104.208)"/><path class="d" d="M646.347,216.039a2.379,2.379,0,1,1-2.379-2.379A2.379,2.379,0,0,1,646.347,216.039Z" transform="translate(-568.87 -69.223)"/><rect class="d" width="3.682" height="22.912" transform="translate(73.157 119.064)"/><rect class="a" width="12.03" height="56.06" transform="translate(57.208 104.208)"/><path class="b" d="M633.586,216.039a2.388,2.388,0,1,1-2.388-2.379A2.388,2.388,0,0,1,633.586,216.039Z" transform="translate(-567.738 -69.223)"/><rect class="b" width="3.682" height="22.912" transform="translate(61.519 119.064)"/><path class="a" d="M607.73,225.084l14.455-49.315L617.2,173.59,602.38,223.3Z" transform="translate(-565.396 -65.672)"/><path class="a" d="M584.75,317.345V308.86H644.7l.191,8.485Z" transform="translate(-563.834 -77.659)"/><path class="c" d="M644.982,310.38s-53.17.392-56.615,1.2c-.738.173-1.495,3.436,0,3.737s56.615.747,56.615.747Z" transform="translate(-564.078 -77.793)"/><path class="e" d="M592.4,307.665V299.18h47.483l.155,8.485Z" transform="translate(-564.511 -76.801)"/><path class="d" d="M640.1,300.7s-42.115.392-44.849,1.2c-.583.173-1.185,3.436,0,3.737s44.849.747,44.849.747Z" transform="translate(-564.704 -76.936)"/><path class="b" d="M592.16,298.465V289.98h47.492l.155,8.485Z" transform="translate(-564.49 -75.986)"/><path class="d" d="M639.873,291.5s-42.124.392-44.849,1.2c-.583.173-1.185,3.436,0,3.737s44.849.747,44.849.747Z" transform="translate(-564.683 -76.12)"/><rect class="a" width="12.03" height="56.06" transform="translate(86.454 19.094)"/><path class="b" d="M665.678,122.649a2.379,2.379,0,1,1-2.379-2.379A2.379,2.379,0,0,1,665.678,122.649Z" transform="translate(-570.583 -60.948)"/><rect class="b" width="3.682" height="22.912" transform="translate(90.774 33.949)"/><rect class="e" width="12.03" height="56.06" transform="translate(74.242 19.094)"/><path class="d" d="M652.276,122.649a2.388,2.388,0,1,1-2.388-2.379A2.388,2.388,0,0,1,652.276,122.649Z" transform="translate(-569.394 -60.948)"/><rect class="d" width="3.682" height="22.912" transform="translate(78.553 33.949)"/><rect class="b" width="12.03" height="56.06" transform="translate(62.603 19.094)"/><path class="d" d="M639.536,122.649a2.388,2.388,0,1,1-2.379-2.379,2.388,2.388,0,0,1,2.379,2.379Z" transform="translate(-568.265 -60.948)"/><rect class="d" width="3.682" height="22.912" transform="translate(66.923 33.949)"/></g><g transform="translate(1629.278 1027.93)"><path class="f" d="M246.236,467.824h1.651v.091c-7.506.109-39.913.191-78.736.191L112.3,467.97,95.069,467.9l-4.684-.046h0l4.684-.046,17.235-.073,56.848-.073,78.736.191v.091h-1.231Z" transform="translate(-88.75 -467.66)"/></g><g transform="translate(1615.661 678.674)"><path class="g" d="M565.387,405.09a10.406,10.406,0,0,0,0,1.723c0,1.112.118,2.734.228,4.7.219,3.965.62,9.433,1.075,15.494s.857,11.511,1.112,15.494c.128,1.9.228,3.491.31,4.685a10.274,10.274,0,0,0,.173,1.723,11.085,11.085,0,0,0,0-1.723c0-1.112-.055-2.734-.137-4.7-.164-3.974-.5-9.451-.957-15.494s-.911-11.411-1.23-15.494c-.164-1.914-.3-3.491-.4-4.685A10.459,10.459,0,0,0,565.387,405.09Z" transform="translate(-479.971 -112.859)"/><path class="g" d="M565.387,405.09a10.406,10.406,0,0,0,0,1.723c0,1.112.118,2.734.228,4.7.219,3.965.62,9.433,1.075,15.494s.857,11.511,1.112,15.494c.128,1.9.228,3.491.31,4.685a10.274,10.274,0,0,0,.173,1.723,11.085,11.085,0,0,0,0-1.723c0-1.112-.055-2.734-.137-4.7-.164-3.974-.5-9.451-.957-15.494s-.911-11.411-1.23-15.494c-.164-1.914-.3-3.491-.4-4.685A10.459,10.459,0,0,0,565.387,405.09Z" transform="translate(-479.971 -112.859)"/><path class="f" d="M515.638,436.44l.328,18.51S497.255,461.5,497,464.93l35.909.647.674-28.855Z" transform="translate(-473.914 -115.637)"/><path class="b" d="M529.829,455.255a1.476,1.476,0,0,1,.984,1.7,1.4,1.4,0,0,1-1.668.993,1.54,1.54,0,0,1-1.03-1.823,1.458,1.458,0,0,1,1.823-.838" transform="translate(-476.668 -117.3)"/><path class="g" d="M532.9,468.127V465.22l-34.414.465s-1.613.665-1.449,1.823Z" transform="translate(-473.917 -118.187)"/><path class="c" d="M517.17,456.525c0,.173.911.273,1.732.848s1.3,1.331,1.467,1.258-.082-1.085-1.13-1.768S517.133,456.361,517.17,456.525Z" transform="translate(-475.702 -117.403)"/><path class="c" d="M513,458.164c0,.173.711.483,1.294,1.24s.738,1.54.911,1.531.31-.993-.437-1.914S513,458.009,513,458.164Z" transform="translate(-475.332 -117.557)"/><path class="c" d="M510.44,462.781c.164,0,.419-.839,0-1.823s-1.249-1.367-1.331-1.221.428.665.766,1.467S510.267,462.754,510.44,462.781Z" transform="translate(-474.987 -117.699)"/><path class="c" d="M517.609,451.835c.064.164.911-.064,1.823,0s1.75.41,1.823.264-.638-.784-1.823-.911S517.518,451.7,517.609,451.835Z" transform="translate(-475.74 -116.943)"/><path class="f" d="M565.369,435.2l1.941,22.311L563.765,475.6a2.279,2.279,0,0,0,1.96,2.734h0a2.26,2.26,0,0,0,1.978-.72c3.2-3.482,14.91-16.405,14.673-18.009-.264-1.877-.483-23.7-.483-23.7Z" transform="translate(-479.826 -115.527)"/><path class="g" d="M565.92,480.542,582.48,460.3l.055.911a3.426,3.426,0,0,1-.674,2.288c-1.312,1.759-5.04,6.544-13.9,16.287a2.3,2.3,0,0,1-2.042.72Z" transform="translate(-480.021 -117.751)"/><g class="h" transform="translate(96.916 335.369)"><path class="c" d="M578.5,452.694a1.385,1.385,0,0,0-.264,1.823,1.331,1.331,0,0,0,1.823.273,1.458,1.458,0,0,0,.264-1.941,1.385,1.385,0,0,0-1.914-.082" transform="translate(-578.009 -452.422)"/></g><path class="c" d="M570.385,471.211a7.191,7.191,0,0,0-2.069-1.613,7.082,7.082,0,0,0-2.607-.328c0-.055.246-.246.766-.355a3.645,3.645,0,0,1,3.646,1.5C570.385,470.865,570.44,471.193,570.385,471.211Z" transform="translate(-480.003 -118.51)"/><path class="c" d="M568.888,474.7a17.377,17.377,0,0,0-2.042-.839c-1.167-.282-2.151,0-2.2-.146a2.561,2.561,0,0,1,2.306-.337C568.3,473.678,569.006,474.625,568.888,474.7Z" transform="translate(-479.909 -118.898)"/><path class="c" d="M573.2,466.773a11.849,11.849,0,0,0-6.425-2.06,5.031,5.031,0,0,1,3.509.091,5.132,5.132,0,0,1,2.916,1.969Z" transform="translate(-480.097 -118.118)"/><path class="c" d="M573.222,459.442c0,.146-1.312-.292-2.926-.246s-2.862.51-2.916.374a4.4,4.4,0,0,1,2.907-.911A4.484,4.484,0,0,1,573.222,459.442Z" transform="translate(-480.151 -117.605)"/><path class="c" d="M572.77,452.237a7.291,7.291,0,0,0-5.96.592,1.775,1.775,0,0,1,.684-.674,4.967,4.967,0,0,1,2.187-.747,4.767,4.767,0,0,1,2.288.31C572.524,451.945,572.8,452.182,572.77,452.237Z" transform="translate(-480.1 -116.961)"/><path class="c" d="M569.64,450.13a1.969,1.969,0,0,1-.091-.848,6.085,6.085,0,0,1,.529-2.251,2.651,2.651,0,0,1,1.039-1.322.911.911,0,0,1,1.057.146,1.5,1.5,0,0,1,.41.984,3.226,3.226,0,0,1-2.643,3.172,3.746,3.746,0,0,1-3.81-1.722,1.313,1.313,0,0,1-.137-1.085.911.911,0,0,1,.911-.538,3.173,3.173,0,0,1,1.522.674,6.645,6.645,0,0,1,1.631,1.641c.31.447.419.729.392.747a10.263,10.263,0,0,0-2.224-2.1,3.008,3.008,0,0,0-1.34-.556.492.492,0,0,0-.5.292.912.912,0,0,0,.128.7,3.372,3.372,0,0,0,3.327,1.458,2.807,2.807,0,0,0,2.288-2.661,1.129,1.129,0,0,0-.264-.7.492.492,0,0,0-.583-.082,2.352,2.352,0,0,0-.911,1.094A8.613,8.613,0,0,0,569.64,450.13Z" transform="translate(-480.023 -116.449)"/><path class="g" d="M498.11,266.355a79.582,79.582,0,0,0-1.741,23.4c.383,4.967,17.161,142.487,17.161,142.487h22.648L529.8,302.984l1.823.41s12.358,55.121,13.37,64.043c.911,8.02,11.338,66.3,11.338,66.3l20.707.237-6.617-77.085-7.646-73.987-2.9-21.536Z" transform="translate(-473.839 -100.124)"/><path class="f" d="M535.86,290.8a4.4,4.4,0,0,1-.911.529,10.725,10.725,0,0,1-2.8.984,5.925,5.925,0,0,1-2.087,0,4.246,4.246,0,0,1-2.187-1.048,5.2,5.2,0,0,1-1.322-2.306c-.264-.911-.419-1.823-.6-2.734-.729-3.737-1.212-7.136-1.5-9.615-.137-1.23-.237-2.233-.283-2.926a4.12,4.12,0,0,1,0-1.085,5.472,5.472,0,0,1,.21,1.057l.438,2.916c.374,2.452.911,5.842,1.631,9.56.365,1.823.62,3.709,1.768,4.8a4.7,4.7,0,0,0,3.91,1.021,12.631,12.631,0,0,0,2.734-.82A4.553,4.553,0,0,1,535.86,290.8Z" transform="translate(-476.318 -101.119)"/><path class="f" d="M529.362,273.317a.85.85,0,0,1,.465-.137,2.051,2.051,0,0,1,1.267.41,2.149,2.149,0,1,1-2.871,3.181,2.278,2.278,0,0,1-.428-1.941,2.032,2.032,0,0,1,.683-1.139c.255-.2.438-.228.447-.21a2.579,2.579,0,0,0-.793,1.413,1.96,1.96,0,0,0,.428,1.586,1.823,1.823,0,0,0,3.044-1.139,1.95,1.95,0,0,0-.72-1.486,2.624,2.624,0,0,0-1.522-.538Z" transform="translate(-476.638 -101.171)"/><path class="f" d="M567.191,282.84a2.394,2.394,0,0,1-.775.118,13.962,13.962,0,0,1-2.124,0,20.505,20.505,0,0,1-12.759-5.359,14.9,14.9,0,0,1-1.467-1.531c-.31-.392-.474-.62-.447-.638s.784.775,2.142,1.914a22.866,22.866,0,0,0,5.86,3.591,23.289,23.289,0,0,0,6.653,1.686C566.079,282.821,567.191,282.758,567.191,282.84Z" transform="translate(-478.577 -101.37)"/><path class="f" d="M507.282,273.79a9.424,9.424,0,0,1-1.176,2.306,25.974,25.974,0,0,1-8.9,8.667,10.027,10.027,0,0,1-2.342,1.112,21.871,21.871,0,0,1,2.16-1.4,32.048,32.048,0,0,0,4.83-3.846,32.447,32.447,0,0,0,3.974-4.712C506.726,274.61,507.218,273.753,507.282,273.79Z" transform="translate(-473.725 -101.225)"/><path class="f" d="M509.578,104.865a4.192,4.192,0,0,1-1.358-8.2,4.366,4.366,0,0,1,4.2-7.154,5.222,5.222,0,0,1,8.093-3.928,5.887,5.887,0,0,1,7.236.228,4.174,4.174,0,0,1,3.327,7.291" transform="translate(-474.645 -84.447)"/><path class="i" d="M509.093,105.951A17.808,17.808,0,0,1,527.64,90.458h.911c9.907,1.075,14.528,10.08,13.179,19.95l-3.081,33.011-.164,1.6-23.149,3.454.447-8.43s-9.478-1.959-9.114-11.511C506.842,123.988,507.972,114.509,509.093,105.951Z" transform="translate(-474.77 -84.978)"/><path class="j" d="M516.584,144.625a23.168,23.168,0,0,0,12.7-3.035s-3.281,6.717-12.759,5.386Z" transform="translate(-475.644 -89.511)"/><path class="f" d="M511.07,115.577a1.358,1.358,0,0,0,1.249,1.44,1.294,1.294,0,0,0,1.422-1.157,1.358,1.358,0,0,0-1.24-1.44A1.3,1.3,0,0,0,511.07,115.577Z" transform="translate(-475.161 -87.102)"/><path class="f" d="M511.328,112.573c.155.182,1.23-.529,2.734-.456s2.506.911,2.67.693-.073-.4-.529-.766a3.646,3.646,0,0,0-2.124-.775,3.509,3.509,0,0,0-2.16.583C511.419,112.172,511.246,112.491,511.328,112.573Z" transform="translate(-475.182 -86.823)"/><path class="f" d="M526.27,117.026a1.358,1.358,0,0,0,1.249,1.44,1.312,1.312,0,0,0,1.467-1.157,1.385,1.385,0,0,0-1.249-1.449,1.312,1.312,0,0,0-1.467,1.167Z" transform="translate(-476.508 -87.23)"/><path class="f" d="M527.138,113.654c.155.191,1.23-.519,2.734-.447s2.506.866,2.67.693-.073-.41-.529-.775a3.728,3.728,0,0,0-2.123-.766,3.572,3.572,0,0,0-2.16.574C527.229,113.262,527.056,113.572,527.138,113.654Z" transform="translate(-476.583 -86.92)"/><path class="f" d="M520.344,124.25a10.027,10.027,0,0,0-2.36-.547c-.374-.055-.72-.146-.775-.41a1.876,1.876,0,0,1,.31-1.094c.392-.911.811-1.823,1.249-2.8a52.662,52.662,0,0,0,2.853-7.291,53.7,53.7,0,0,0-3.436,7.091c-.428.984-.829,1.914-1.212,2.816a2.206,2.206,0,0,0-.264,1.458.912.912,0,0,0,.593.574,2.651,2.651,0,0,0,.629.128A9.386,9.386,0,0,0,520.344,124.25Z" transform="translate(-475.658 -86.898)"/><path class="f" d="M524.907,126.78c-.237,0-.319,1.568-1.741,2.634s-3.1.8-3.126,1.021.365.328,1.075.383a3.992,3.992,0,0,0,2.616-.766,3.417,3.417,0,0,0,1.349-2.206C525.18,127.181,525.016,126.78,524.907,126.78Z" transform="translate(-475.956 -88.198)"/><path class="f" d="M527,107.357c.128.41,1.6.292,3.317.583s3.081.838,3.327.492c.109-.173-.118-.556-.656-.975a5.888,5.888,0,0,0-5.058-.811C527.31,106.874,527,107.165,527,107.357Z" transform="translate(-476.573 -86.392)"/><path class="f" d="M512.146,107.933c.246.346,1.267.046,2.488.091s2.233.337,2.488,0c.109-.164,0-.51-.474-.848a3.408,3.408,0,0,0-1.987-.647,3.482,3.482,0,0,0-2.014.574C512.2,107.423,512.009,107.76,512.146,107.933Z" transform="translate(-475.253 -86.404)"/><path class="f" d="M510.58,101.5s2.816-5.86,5.76-7.109c3.582-1.513,4.894,2.388,8.266,1.622s6.781-2.215,10.025.519c3.582,3,1.741,4.894,1.759,9.114.082,17.216,2.971,22.229,4.265,14.181.146-.911,2.643-1.458,3.19-5.186.711-4.83,1.194-10.718.283-14.218-.775-2.953-2.324-5.04-5.186-7.4-4.557-3.728-10.937-4.119-15.348-3.9S510.553,93.992,510.58,101.5Z" transform="translate(-475.118 -84.857)"/><path class="i" d="M542.938,122.308a2.588,2.588,0,0,1,2.926-2.36c1.768.255,3.7,1.367,3.4,5.04-.529,6.516-6.963,4.639-6.963,4.448S542.655,125.033,542.938,122.308Z" transform="translate(-477.929 -87.591)"/><path class="k" d="M544,127.311a1.51,1.51,0,0,0,.292.191,1.13,1.13,0,0,0,.848.082,2.816,2.816,0,0,0,1.5-2.406,3.947,3.947,0,0,0-.182-1.659,1.331,1.331,0,0,0-.784-.911.593.593,0,0,0-.7.255c-.1.182-.064.31-.1.319s-.137-.118-.064-.383a.8.8,0,0,1,.292-.392.912.912,0,0,1,.647-.109,1.613,1.613,0,0,1,1.1,1.1,3.964,3.964,0,0,1,.246,1.823,2.943,2.943,0,0,1-1.887,2.679,1.258,1.258,0,0,1-1.03-.255A.467.467,0,0,1,544,127.311Z" transform="translate(-478.079 -87.799)"/><path class="f" d="M541.063,106.7a6.151,6.151,0,0,1-2.825,1.139,2.123,2.123,0,0,1-2.288-1.613c-.055-.456.082-.975-.2-1.349s-1-.337-1.549-.3a4.174,4.174,0,0,1-4.174-3.208,1.75,1.75,0,0,1-2.361.109A9.588,9.588,0,0,1,525.98,99.5a2.679,2.679,0,0,0-2.178-1.239,6.718,6.718,0,0,1-1.44.246c-.857-.118-1.221-1.148-1.312-2.005a3.157,3.157,0,0,0-.838-2.351,3.481,3.481,0,0,0-2.333-.182c-.793.082-1.823-.155-1.969-.911a1.54,1.54,0,0,1,.355-1.167,4.22,4.22,0,0,1,5.067-1.349,5.733,5.733,0,0,1,10.581-.592,5.833,5.833,0,0,1,9.2,2.579,4.22,4.22,0,0,1,4.447,6.38,4,4,0,0,1,2.042,3.3,2.281,2.281,0,0,1-2.734,2.206,2.333,2.333,0,0,1-4.147,2.133" transform="translate(-475.589 -84.646)"/><path class="g" d="M521.219,93v.118a1.886,1.886,0,0,0,0,.346,3.964,3.964,0,0,0,.41,1.285A4.557,4.557,0,0,0,523,96.363a4.311,4.311,0,0,0,2.634.911l-.1-.146a2.342,2.342,0,0,0,0,1.823,6.452,6.452,0,0,0,1.03,1.659,5.537,5.537,0,0,0,.693.793,2.269,2.269,0,0,0,1.021.428,2.379,2.379,0,0,0,2.142-.647l-.246-.082a4.9,4.9,0,0,0,1.9,3.491,3.582,3.582,0,0,0,2.114.811,6.543,6.543,0,0,0,2.133-.355l-.173-.091a5.2,5.2,0,0,0,1.449,2.1,2.735,2.735,0,0,0,2.242.729,3.582,3.582,0,0,0,2.907-2.679l-.146.064a3.372,3.372,0,0,0,2.224.447,3.646,3.646,0,0,0,1.595-.62,3.21,3.21,0,0,0,.775-.766,3.655,3.655,0,0,0,.182-.328,4.23,4.23,0,0,1-1.012,1,3.647,3.647,0,0,1-1.559.547A3.245,3.245,0,0,1,542.7,105l-.119-.082v.137a3.39,3.39,0,0,1-2.734,2.479,2.5,2.5,0,0,1-2.032-.684,5,5,0,0,1-1.358-1.987l-.046-.128h-.128a6.434,6.434,0,0,1-2.041.337,3.254,3.254,0,0,1-1.941-.756,4.648,4.648,0,0,1-1.823-3.281v-.319l-.219.237a2.124,2.124,0,0,1-1.887.565,2.086,2.086,0,0,1-.911-.374,5.181,5.181,0,0,1-.656-.738,6.724,6.724,0,0,1-1.012-1.586,2.141,2.141,0,0,1-.064-1.641l.064-.155h-.164a4.247,4.247,0,0,1-2.534-.811,4.559,4.559,0,0,1-1.358-1.54,5.417,5.417,0,0,1-.52-1.677Z" transform="translate(-476.06 -85.205)"/><path class="l" d="M555.116,199.509l8.667,8.357-2.8-15.977,17.59-5.56s4.666,21.873,5.468,27.1c1.458,9.305-.328,22.52-9,23.459-9.378,1-16.46-8.248-20.962-14.318-3.463-4.648-9.087-12.851-9.087-12.851l10.089-10.244" transform="translate(-478.168 -93.475)"/><path class="l" d="M481.769,185.21c-2.816,8.886-6.762,10.226-8.321,35.681-.31,4.967,3.418,11.329,7.856,13.58s12.167-.51,14.683-4.8l2.488-18.829Z" transform="translate(-471.826 -93.376)"/><path class="f" d="M494.979,225.31a37.933,37.933,0,0,0-1.732-3.746,37.18,37.18,0,0,0-2.4-3.354,3.808,3.808,0,0,1,.911.82,13.194,13.194,0,0,1,1.75,2.379,13.778,13.778,0,0,1,1.2,2.734A3.862,3.862,0,0,1,494.979,225.31Z" transform="translate(-473.369 -96.3)"/><path class="l" d="M477.92,192.7c.146-.529,8.831-24.152,11.6-29.329,3.308-6.188,10.271-8.923,14.582-9.187s50.582,3.418,50.582,3.418,12.96,3.254,15.585,14.983c3.29,14.7,5.933,29.164,5.933,29.164l-23.186,5.013-2.734-6.872-43.546,9.715L496.093,193.88Z" transform="translate(-472.224 -90.626)"/><path class="l" d="M559.074,228.21l-.6-20.962.866-49.37-18.073-7.966-2.023-7.792-21.1,9.971-4.42-4.885-1.823,5.468-4.621,1.513-9.114,17.936-.374,31.5s-3.126,43.984-1.823,53.863c0,0,4.247,1.568,14.728,1.823,21.245.51,50.19-.829,50.19-.829l.292-.911a18.483,18.483,0,0,0,.72-8.039l-2.8-21.3" transform="translate(-473.795 -89.557)"/><path class="c" d="M543.855,197.521a13.541,13.541,0,0,1-2.734-.128l-6.644-.547-6.653-.5a13.771,13.771,0,0,1-2.734-.31,11.447,11.447,0,0,1,2.734-.109c1.713,0,4.074.109,6.681.319s4.949.483,6.644.729a11.7,11.7,0,0,1,2.707.547Z" transform="translate(-476.404 -94.322)"/><path class="c" d="M543.535,201.071a13.87,13.87,0,0,1-2.734-.118l-6.644-.556-6.653-.5a14.082,14.082,0,0,1-2.734-.31,11.611,11.611,0,0,1,2.734-.109c1.713,0,4.074.118,6.68.319s4.949.483,6.644.729A11.7,11.7,0,0,1,543.535,201.071Z" transform="translate(-476.375 -94.637)"/><path class="c" d="M543.175,204.618a13.861,13.861,0,0,1-2.734-.118l-6.653-.592-6.653-.5a14.052,14.052,0,0,1-2.734-.31,12.175,12.175,0,0,1,2.734-.109c1.7,0,4.074.118,6.672.319s4.958.483,6.653.729a11.964,11.964,0,0,1,2.716.583Z" transform="translate(-476.342 -94.948)"/><path class="c" d="M542.885,208.172a13.861,13.861,0,0,1-2.734-.118l-6.644-.556-6.653-.492a14.262,14.262,0,0,1-2.734-.319,12.069,12.069,0,0,1,2.734-.109c1.714,0,4.074.118,6.681.319s4.958.483,6.644.729a12.312,12.312,0,0,1,2.707.547Z" transform="translate(-476.317 -95.266)"/><path class="f" d="M512.07,259.1a1.075,1.075,0,0,1,0-.255,3.93,3.93,0,0,0-.055-.747c0-.711-.091-1.677-.164-2.889-.109-2.57-.273-6.188-.474-10.636-.328-8.986-.756-21.4-.611-35.125.082-6.872.31-13.416.966-19.349s1.7-11.183,2.625-15.585,1.823-7.938,2.37-10.381c.3-1.176.538-2.114.711-2.807.073-.283.146-.529.191-.72a1.241,1.241,0,0,1,.091-.246.779.779,0,0,1,0,.255l-.137.738c-.155.7-.356,1.641-.6,2.834-.529,2.452-1.322,6.006-2.206,10.408s-1.823,9.67-2.5,15.567a192.231,192.231,0,0,0-.911,19.285c-.146,13.671.219,26.12.456,35.107.119,4.448.219,8.075.292,10.636q0,1.823.055,2.9v.756a.82.82,0,0,1-.1.255Z" transform="translate(-475.132 -91.174)"/><path class="f" d="M526.831,183.993a9.443,9.443,0,0,1,1.221,0l3.573.219,13.005.911h.246v.246c-.447,5.96-.984,13.1-1.568,20.8v.137l-.109.082c-.611.447-1.267.911-1.95,1.331a38.818,38.818,0,0,1-3.645,2.124,10.818,10.818,0,0,1-3.964,1.267,7.847,7.847,0,0,1-3.928-.911,17.147,17.147,0,0,1-3.181-2.133c-.483-.392-.911-.793-1.385-1.212a2.735,2.735,0,0,1-.611-.738,3.718,3.718,0,0,1-.346-.911,13.231,13.231,0,0,1-.319-3.436,47.764,47.764,0,0,1,.547-6.07c.538-3.646,1.176-6.626,1.631-8.649.237-1.012.428-1.823.574-2.324a4.014,4.014,0,0,1,.246-.8,4.9,4.9,0,0,1-.128.829c-.118.592-.273,1.367-.465,2.342-.383,2.042-.957,4.985-1.44,8.658a53.893,53.893,0,0,0-.474,6.024,13.38,13.38,0,0,0,.337,3.281,2.524,2.524,0,0,0,.82,1.367c.437.4.911.793,1.358,1.176a17.043,17.043,0,0,0,3.081,2.042,7.373,7.373,0,0,0,3.646.838,10.406,10.406,0,0,0,3.737-1.221,41.263,41.263,0,0,0,3.6-2.087c.665-.437,1.321-.911,1.914-1.312l-.128.219c.62-7.7,1.194-14.828,1.677-20.789l.228.264-12.85-1.121-3.646-.346-.911-.109Z" transform="translate(-476.295 -93.261)"/><path class="c" d="M541.429,142.13a53.391,53.391,0,0,0-8.421,3.91c-6.061,3.226-12.677,6.061-12.677,6.061l.51,9.524,22.447-11.265" transform="translate(-475.982 -89.558)"/><path class="c" d="M515.3,147.71l4.42,4.885L517.357,162.8l-3.937-9.223" transform="translate(-475.369 -90.053)"/><path class="f" d="M544.651,191.241c0,.164-4.238,0-9.424-.437a83.764,83.764,0,0,1-9.387-1.03c.009-.164,4.238,0,9.433.437A83.091,83.091,0,0,1,544.651,191.241Z" transform="translate(-476.47 -93.775)"/><g class="m" transform="translate(48.468 112.778)"><path d="M524.85,208.2c1.021,1.668,1.969,3.965,3.354,5.35a8.2,8.2,0,0,0,5.14,2.552,8.321,8.321,0,0,0,4.876-1.449,12.85,12.85,0,0,0,4.858-6.38c.146-.191-3.372,2.16-5.286,3.181a8.549,8.549,0,0,1-5.414,1.157c-2.834-.228-5.377-2.561-7.528-4.42" transform="translate(-524.85 -208.19)"/></g><g class="m" transform="translate(42.844 61.786)"><path d="M520.1,154.054c-.191.146-1.422,11.775-1.422,11.775l22.5-13.589-20.488,10.28Z" transform="translate(-518.68 -152.24)"/></g><path class="f" d="M559.66,182.45a4.086,4.086,0,0,1,.21.911c.118.656.273,1.5.456,2.534.383,2.187.911,5.113,1.44,8.339s1.048,6.216,1.367,8.357c.164,1.075.283,1.941.365,2.543a4.776,4.776,0,0,1,.082.911,5.976,5.976,0,0,1-.21-.911c-.118-.647-.264-1.495-.456-2.525l-1.458-8.339c-.565-3.263-1.03-6.216-1.349-8.367-.137-1.03-.264-1.887-.355-2.534a6.948,6.948,0,0,1-.091-.921Z" transform="translate(-479.467 -93.131)"/><path class="f" d="M566.348,160.93s-.611.547-1.522,1.486a19.05,19.05,0,0,0-3,4.1,18.793,18.793,0,0,0-1.768,4.767c-.283,1.285-.346,2.1-.4,2.087a2.306,2.306,0,0,1,0-.574,11.958,11.958,0,0,1,.182-1.549,16.678,16.678,0,0,1,4.831-8.986,13.076,13.076,0,0,1,1.194-1.021,2.464,2.464,0,0,1,.483-.31Z" transform="translate(-479.465 -91.224)"/><path class="f" d="M496.545,175.58c.091,0,.164,13.233.164,29.538s-.073,29.547-.164,29.547-.155-13.224-.155-29.547S496.463,175.58,496.545,175.58Z" transform="translate(-473.86 -92.522)"/><path class="f" d="M519.919,153a21.427,21.427,0,0,1-1.139,1.941,53.076,53.076,0,0,0-2.561,4.785l-.21.456-.137.3-.146-.3a36.671,36.671,0,0,1-1.878-4.748c-.2-.62-.337-1.13-.419-1.476a1.822,1.822,0,0,1-.1-.556s.282.747.72,1.96,1.094,2.889,1.959,4.694h-.246l.21-.465a40.09,40.09,0,0,1,2.616-4.767c.383-.583.711-1.048.911-1.358a2.5,2.5,0,0,1,.419-.465Z" transform="translate(-475.361 -90.522)"/><path class="f" d="M543.45,150.68a1.665,1.665,0,0,1-.31.182l-.911.474-3.354,1.741c-2.825,1.476-6.7,3.573-11,5.86-2.607,1.394-5.086,2.689-7.291,3.764l-.191.1v-.219c0-2.8-.046-5.149-.064-6.854V153.8a3.643,3.643,0,0,1,0-.684,4.569,4.569,0,0,1,.055.684c0,.483,0,1.13.073,1.932.046,1.7.109,4.056.182,6.845l-.2-.118c2.142-1.094,4.612-2.4,7.218-3.791,4.293-2.3,8.2-4.356,11.046-5.787,1.431-.711,2.588-1.267,3.4-1.65l.911-.419a1.7,1.7,0,0,1,.438-.128Z" transform="translate(-475.98 -90.316)"/><path class="f" d="M499.286,158.73s-.31.629-.756,1.65a18.573,18.573,0,0,0-1.294,4.138,18.878,18.878,0,0,0-.264,4.329c.064,1.112.173,1.823.128,1.823s-.073-.164-.146-.474a10.209,10.209,0,0,1-.2-1.312,15.777,15.777,0,0,1,1.577-8.585,12.764,12.764,0,0,1,.656-1.157Q499.259,158.716,499.286,158.73Z" transform="translate(-473.886 -91.029)"/><path class="f" d="M517.934,167.4c0,.082-.556-.164-1.139-.529s-1.021-.729-.975-.8.565.164,1.148.538S517.98,167.326,517.934,167.4Z" transform="translate(-475.582 -91.678)"/><path class="f" d="M518.962,165.558a29.886,29.886,0,0,1-2.443-5.578,29.038,29.038,0,0,1,2.443,5.56Z" transform="translate(-475.644 -91.14)"/><path class="f" d="M577.778,223.3l-.082-.137c0-.1-.119-.237-.209-.41l-.337-.665-.565-.857a31.391,31.391,0,0,0-4.5-4.894c-2.105-1.923-4.766-4.1-7.756-6.58-1.486-1.249-3.071-2.561-4.666-4.028a44.9,44.9,0,0,1-4.666-4.858h.228l-9.032,9.451-1.221,1.267v-.2c3.418,4.994,6.516,9.834,9.788,13.88a64.488,64.488,0,0,0,4.912,5.468,41.294,41.294,0,0,0,4.776,4.256c3.126,2.36,6.261,3.372,8.439,3.317h.775l.665-.073.583-.064.465-.1.638-.137h.219l-.209.064-.638.164-.465.128-.574.073-.684.091h-.775c-2.206.091-5.4-.911-8.567-3.263a40.7,40.7,0,0,1-4.83-4.247,64.891,64.891,0,0,1-4.958-5.468c-3.29-4.056-6.38-8.9-9.816-13.88l-.073-.109.082-.091,1.212-1.258,9.059-9.469.118-.118.109.128a44.4,44.4,0,0,0,4.63,4.849c1.577,1.458,3.153,2.78,4.639,4.037,2.98,2.488,5.632,4.685,7.719,6.635a30.176,30.176,0,0,1,4.457,4.976l.556.911c.119.264.228.492.31.684s.146.31.191.419S577.778,223.3,577.778,223.3Z" transform="translate(-478.136 -94.735)"/><g class="m" transform="translate(6.799 108.859)"><path d="M528.363,216.968a2.033,2.033,0,0,0-.7-1.312c-.747-.483-1.677.155-2.442.611-2.005,1.194-4.493,1.148-6.835,1.048a171.407,171.407,0,0,1-21.053-2,32.218,32.218,0,0,1-9.889-2.944,13.26,13.26,0,0,1-6.69-7.574l-1.622-.911c1.258,2.734,1.13,10.317,1.586,13.261s1.75,5.031,4.557,5.942a10.089,10.089,0,0,0,3.554.255c11.6-.574,23.3-.055,34.906-.629,1.659-.082,3.582-.31,4.475-1.7C528.983,219.867,528.682,218.326,528.363,216.968Z" transform="translate(-479.13 -203.89)"/></g><path class="i" d="M540.393,187.463s-5.468-6.289-6.48-5.6-2.415,1.075-1.039,3.646,3.646,3.983,4.092,6.143-.055,7.346,2.351,9.169,5.787,6.38,5.787,6.38l8.385-8.758-3.317-2.506s2.005-5.022,1.987-7.647a15.365,15.365,0,0,0-1.823-5.9,6.116,6.116,0,0,0-1.823-3.418,27.949,27.949,0,0,0-.656-3.345c-.456-1.659-6.48-7.473-6.48-7.473a2.57,2.57,0,0,0-.683,3.509,33.152,33.152,0,0,0,2.734,3.828l-5.468-.656a2.889,2.889,0,0,0,2.324,3.536c3.035.784,3.755,1.887,3.755,1.887l-3.755,1.249s.173,2.215,1.823,2.26l1.641.055Z" transform="translate(-477.043 -91.865)"/><path class="j" d="M542.628,185.2l3.645-.118h.055a6.249,6.249,0,0,1,1.44,2.9,5.8,5.8,0,0,1-.738,3.8,13.812,13.812,0,0,1-2.88,3.044A8.784,8.784,0,0,0,542,197.365a4.066,4.066,0,0,0-.483,2.16,8,8,0,0,0,.137.82.654.654,0,0,1-.1-.191,2.249,2.249,0,0,1-.155-.62,4.028,4.028,0,0,1,.4-2.269,8.8,8.8,0,0,1,2.16-2.652,13.978,13.978,0,0,0,2.8-2.989,5.632,5.632,0,0,0,.729-3.6,6.325,6.325,0,0,0-1.34-2.8l.091.046a20.05,20.05,0,0,1-3.609-.073Z" transform="translate(-477.846 -93.364)"/><path class="j" d="M550.645,183.414a7.287,7.287,0,0,1-.556-.72,3.646,3.646,0,0,0-1.777-1.112,7.345,7.345,0,0,0-2.151-.21,3.51,3.51,0,0,1-.911,0,2.241,2.241,0,0,1,.911-.219,5.614,5.614,0,0,1,2.251.128,3.572,3.572,0,0,1,1.139.547,3.088,3.088,0,0,1,.729.738A1.821,1.821,0,0,1,550.645,183.414Z" transform="translate(-478.19 -93.011)"/><path class="j" d="M549.093,178.848c-.064.064-.911-.756-2.1-1.467s-2.324-1.03-2.3-1.121a6.672,6.672,0,0,1,4.393,2.588Z" transform="translate(-478.141 -92.583)"/><path class="n" d="M475.77,187.855l7.236,27.342a3.39,3.39,0,0,0,3.345,2.525l37.449-.738a3.4,3.4,0,0,0,3.263-4.092l-5.523-26.157A3.4,3.4,0,0,0,518.213,184H478.7a3.062,3.062,0,0,0-2.935,3.855Z" transform="translate(-472.024 -93.268)"/><path class="i" d="M472.262,194.522a2.734,2.734,0,0,1,0-3.39,4.165,4.165,0,0,1,3.208-1.522,9.114,9.114,0,0,1,3.573.747,22.458,22.458,0,0,1,4.056,2.023,3.846,3.846,0,0,1,2.023,2.361c.173,1.048-.966,2.251-1.9,1.723a4.484,4.484,0,0,1,2.616,3.117c.191,1.34-.52,2.051-1.823,2.433a2.014,2.014,0,0,1,1.167,2.534,2.315,2.315,0,0,1-2.889.911,6.626,6.626,0,0,1-2.525-2.114,6.2,6.2,0,0,1,.72,4.238,8.275,8.275,0,0,1-5.414-6.653,3.81,3.81,0,0,1-1.039-4.7,4,4,0,0,1-2.37-3.317" transform="translate(-471.67 -93.766)"/><path class="j" d="M484.333,202.954a11.846,11.846,0,0,1-1.23-.911,8.312,8.312,0,0,0-3.245-1.659,4.558,4.558,0,0,0-1.978,0,3.792,3.792,0,0,0-1.449.72,4.675,4.675,0,0,0-.911,1.185.911.911,0,0,1,.109-.41,2.963,2.963,0,0,1,.684-.911,3.646,3.646,0,0,1,1.522-.829,4.456,4.456,0,0,1,2.114,0,7.674,7.674,0,0,1,3.317,1.823A5.758,5.758,0,0,1,484.333,202.954Z" transform="translate(-472.011 -94.687)"/><path class="j" d="M483.9,197.053a6.225,6.225,0,0,1-1.495-.62c-.456-.219-.984-.474-1.595-.7a14.917,14.917,0,0,0-2.051-.529,5.961,5.961,0,0,0-2.087,0,3.81,3.81,0,0,0-1.54.665,4.111,4.111,0,0,0-1.012,1.2,1.048,1.048,0,0,1,.128-.419,2.634,2.634,0,0,1,.747-.957,3.8,3.8,0,0,1,1.622-.775,5.87,5.87,0,0,1,2.187,0,12.2,12.2,0,0,1,2.105.574,13.924,13.924,0,0,1,1.595.766A12.427,12.427,0,0,1,483.9,197.053Z" transform="translate(-471.887 -94.227)"/><g class="m" transform="translate(67.953 119.276)"><path d="M563.474,236.665c-.292-1.085.1-1.085-.766-1.823a67.081,67.081,0,0,1-8.667-9.114c-2.67-3.336-6.826-10.116-6.826-10.116l-.984-.292c.848,4.876,3.308,9.305,5.724,13.671a37.679,37.679,0,0,0,4.448,6.762,12.668,12.668,0,0,0,6.772,4.211,4.156,4.156,0,0,0,.3-3.3Z" transform="translate(-546.23 -215.32)"/></g></g></g><g transform="matrix(-0.94, 0, 0, 1, 1902.308, 962.637)"><g transform="translate(-0.001 0)"><g transform="translate(26.127 58.299)"><path class="o" d="M63.553,429.7c-8.981-9.31-14.26-32.593-5.518-39.946h44.6c8.767,7.353,3.5,30.652-5.485,39.938-.082.082-.173.164-.247.255l-.313.3c-.255.247-.526.494-.822.732l-.214.164c-.222.181-.436.354-.674.518a12.248,12.248,0,0,1-1.168.757c-7.4,4.31-19.376,4.31-26.769,0h0a10.241,10.241,0,0,1-1.176-.757c-.222-.156-.419-.321-.625-.485l-.271-.214c-.28-.23-.535-.461-.781-.7l-.354-.354Z" transform="translate(-53.563 -382.324)"/><path class="g" d="M98.944,385.178c10.181,5.946,10.181,15.577,0,21.523s-26.679,5.938-36.852,0-10.181-15.577,0-21.523S88.77,379.24,98.944,385.178Z" transform="translate(-53.722 -380.721)"/><path class="f" d="M95.545,388.914c7.476,4.359,7.476,11.44,0,15.8s-19.59,4.367-27.065,0-7.476-11.44,0-15.8S88.069,384.546,95.545,388.914Z" transform="translate(-55.216 -381.595)"/><path class="d" d="M68.724,398.033c7.476-4.367,19.59-4.367,27.065,0a12.336,12.336,0,0,1,4.474,4.153,12.337,12.337,0,0,1-4.474,4.112c-7.476,4.367-19.59,4.367-27.065,0a12.443,12.443,0,0,1-4.474-4.112A12.386,12.386,0,0,1,68.724,398.033Z" transform="translate(-55.461 -383.214)"/></g><path class="p" d="M65.038,323.179c2.286,3.767-.411,10.453-6.579,11.884,1.834-2.8,3.355-7.122,1.776-7.649s.387,3.372-2.928,7.188c0,0-1.826.954-4.482-1.044,3.742-2.837,5.255-8.5,3.915-7.665-.535.337-1.373,3.15-3.61,4.976s-4.54,2.031-8.068-.74c2.056-.419,5-1.332,6.629-3.5,1.176-1.554,1.513-2.533-1.25-.691s-3.635,2.615-6.316,2.607-5.107-2.722-5.107-2.722,4.4.271,5.354-1.168-3.594.822-6.678-.337a17.729,17.729,0,0,1-5.173-3s1.324-3.536,2.319-4.425c2.344,1.645,5.28,3.939,5.7,3.43s-.567-2.319-4.013-3.874a2.936,2.936,0,0,1,2.656-2.2s1.743.2,4.482,4.647c.576.938,1.809,1.743-.436-1.842a11.926,11.926,0,0,0-3.454-3.915,4.622,4.622,0,0,1,5.757.354c5.124,4.038,5.387,6.119,6.1,5.757.263-.123-.156-1.2-2.13-3.759a15.978,15.978,0,0,0-3.635-3.619s2.048-2.55,5.617-.362,5.806,6.941,6.053,7.024c.641.2-.444-3.611-1.9-5.642-1.357-1.892-2.1-2.747-2.1-2.747a5.156,5.156,0,0,1,5.888,1.768c2.632,3.166,2.41,7.961,3.216,7.7s-.946-7.764-.946-7.764S69.249,318.286,65.038,323.179Z" transform="translate(-23.699 -309.836)"/><path class="q" d="M65.038,323.179c2.286,3.767-.411,10.453-6.579,11.884,1.834-2.8,3.355-7.122,1.776-7.649s.387,3.372-2.928,7.188c0,0-1.826.954-4.482-1.044,3.742-2.837,5.255-8.5,3.915-7.665-.535.337-1.373,3.15-3.61,4.976s-4.54,2.031-8.068-.74c2.056-.419,5-1.332,6.629-3.5,1.176-1.554,1.513-2.533-1.25-.691s-3.635,2.615-6.316,2.607-5.107-2.722-5.107-2.722,4.4.271,5.354-1.168-3.594.822-6.678-.337a17.729,17.729,0,0,1-5.173-3s1.324-3.536,2.319-4.425c2.344,1.645,5.28,3.939,5.7,3.43s-.567-2.319-4.013-3.874a2.936,2.936,0,0,1,2.656-2.2s1.743.2,4.482,4.647c.576.938,1.809,1.743-.436-1.842a11.926,11.926,0,0,0-3.454-3.915,4.622,4.622,0,0,1,5.757.354c5.124,4.038,5.387,6.119,6.1,5.757.263-.123-.156-1.2-2.13-3.759a15.978,15.978,0,0,0-3.635-3.619s2.048-2.55,5.617-.362,5.806,6.941,6.053,7.024c.641.2-.444-3.611-1.9-5.642-1.357-1.892-2.1-2.747-2.1-2.747a5.156,5.156,0,0,1,5.888,1.768c2.632,3.166,2.41,7.961,3.216,7.7s-.946-7.764-.946-7.764S69.249,318.286,65.038,323.179Z" transform="translate(-23.699 -309.836)"/><path class="p" d="M77.609,318.515A7.772,7.772,0,0,1,82.65,314.3a5.535,5.535,0,0,1,5.93,2.262c.082.14,0,.444-.156.238-1.447-1.982-4.054-2.04-6.193-1.267A7.849,7.849,0,0,0,77.8,320.62a27.965,27.965,0,0,0-1.192,7.476,63.669,63.669,0,0,0,.049,8.117c.707,10.823,3.651,21.383,5.938,31.911,1.283,5.938,1.883,17.707,2.352,23.736,0,.535-.822,1.044-.822.313-1.151-11.975-4.178-29.386-6.5-41.122a100.556,100.556,0,0,1-2.13-17.378C75.331,328.754,75.29,322.981,77.609,318.515Z" transform="translate(-31.319 -310.6)"/><path class="r" d="M77.609,318.515A7.772,7.772,0,0,1,82.65,314.3a5.535,5.535,0,0,1,5.93,2.262c.082.14,0,.444-.156.238-1.447-1.982-4.054-2.04-6.193-1.267A7.849,7.849,0,0,0,77.8,320.62a27.965,27.965,0,0,0-1.192,7.476,63.669,63.669,0,0,0,.049,8.117c.707,10.823,3.651,21.383,5.938,31.911,1.283,5.938,1.883,17.707,2.352,23.736,0,.535-.822,1.044-.822.313-1.151-11.975-4.178-29.386-6.5-41.122a100.556,100.556,0,0,1-2.13-17.378C75.331,328.754,75.29,322.981,77.609,318.515Z" transform="translate(-31.319 -310.6)"/><path class="p" d="M68.151,333.079c5.14.041,9.26,3.964,11.695,8.159,2.78,4.787,4.457,10.33,5.757,15.667a99.371,99.371,0,0,1,2.689,17.872,60.7,60.7,0,0,1,0,9.392c-.28,3.01-.74,6.579-2.467,9.129-.14.214-.3-.181-.271-.3.576-2.541,1.373-4.935,1.7-7.55a49.9,49.9,0,0,0,.28-7.6,98.7,98.7,0,0,0-1.809-15.84,83.457,83.457,0,0,0-4.482-15.256c-1.8-4.433-4.326-8.907-8.742-11.161a9.918,9.918,0,0,0-7.624-.822,7.657,7.657,0,0,0-5.091,5.3c0,.173-.214,0-.2-.14A8.438,8.438,0,0,1,68.151,333.079Z" transform="translate(-28.506 -313.962)"/><path class="s" d="M68.151,333.079c5.14.041,9.26,3.964,11.695,8.159,2.78,4.787,4.457,10.33,5.757,15.667a99.371,99.371,0,0,1,2.689,17.872,60.7,60.7,0,0,1,0,9.392c-.28,3.01-.74,6.579-2.467,9.129-.14.214-.3-.181-.271-.3.576-2.541,1.373-4.935,1.7-7.55a49.9,49.9,0,0,0,.28-7.6,98.7,98.7,0,0,0-1.809-15.84,83.457,83.457,0,0,0-4.482-15.256c-1.8-4.433-4.326-8.907-8.742-11.161a9.918,9.918,0,0,0-7.624-.822,7.657,7.657,0,0,0-5.091,5.3c0,.173-.214,0-.2-.14A8.438,8.438,0,0,1,68.151,333.079Z" transform="translate(-27.513 -314.125)"/><path class="p" d="M73.134,374.006c-1.645-6.078-3.693-12.337-7.887-17.123a19.956,19.956,0,0,0-3.709-3.339,10.236,10.236,0,0,0-4.26-2.114c-.173,0-.189.337-.082.411a41.736,41.736,0,0,1,4.482,3.224,24.371,24.371,0,0,1,3.4,3.956,43.434,43.434,0,0,1,5.033,10.832A111.454,111.454,0,0,1,73.4,381.6c.929,4.252,1.645,8.529,2.36,12.814,0,.206.247.165.255,0A74.255,74.255,0,0,0,73.134,374.006Z" transform="translate(-28.069 -317.221)"/><path class="r" d="M73.134,374.006c-1.645-6.078-3.693-12.337-7.887-17.123a19.956,19.956,0,0,0-3.709-3.339,10.236,10.236,0,0,0-4.26-2.114c-.173,0-.189.337-.082.411a41.736,41.736,0,0,1,4.482,3.224,24.371,24.371,0,0,1,3.4,3.956,43.434,43.434,0,0,1,5.033,10.832A111.454,111.454,0,0,1,73.4,381.6c.929,4.252,1.645,8.529,2.36,12.814,0,.206.247.165.255,0A74.255,74.255,0,0,0,73.134,374.006Z" transform="translate(-28.069 -317.221)"/><path class="p" d="M94.359,355.978c1.735-2.887,8.643-5.634,18.266-2.665a26.513,26.513,0,0,1,9.359,5.272c-6.316-1.768-14.869-3.471-16.053-1.267s2.467,1.744,5.823,1.563a37.773,37.773,0,0,1,11.374.773,19.738,19.738,0,0,1,6.374,7.9c-6-4.622-14.137-6-17.822-5.329s-4.054,2.114-1.1,2.064,8.767-.362,21.21,6.909c0,0,2.163,2.73,1.431,8.619-1.809-2.928-5.1-4.935-8.027-6.58a43.688,43.688,0,0,0-9.375-4.178c-.584-.165-1.76-.469-2.253.049s-.058,1.332.411,1.711a11.39,11.39,0,0,0,3.372,1.645c1.554.51,3.076,1.2,4.581,1.859a48.468,48.468,0,0,1,7.319,3.627c1.242.822,2.911,5.28,1.447,9.236-3.133-1.645-8.841-7.961-13.9-9.047s.444,1.719,4.038,4.507c3.092,2.4,8.52,7.221,8.52,7.221a83.619,83.619,0,0,1-5.033,9.392,31.861,31.861,0,0,1-10.264-3.224s-.189-10.56-2.319-12.221-1.464,2.73-.387,6.736,1.308,5.477,1.308,5.477-10.486-1.365-13.471-5.963c.518-2.064,2.467-7.246,3.684-10.733,1.25-3.668,3.076-6.489,2.163-7.492s-2.944,1.6-4.778,4.992a42.842,42.842,0,0,0-3.684,10.914s-6.53-3.536-8.282-6.283c-.822-6.777,4.564-12.476,5.584-13.266s.567-4.507-4.342-1.193a10.815,10.815,0,0,0-4.934,9.047s-4.934-2.114-5.6-7.131C77.853,360.814,83.035,354.539,94.359,355.978Z" transform="translate(-31.925 -317.329)"/><path class="t" d="M94.359,355.978c1.735-2.887,8.643-5.634,18.266-2.665a26.513,26.513,0,0,1,9.359,5.272c-6.316-1.768-14.869-3.471-16.053-1.267s2.467,1.744,5.823,1.563a37.773,37.773,0,0,1,11.374.773,19.738,19.738,0,0,1,6.374,7.9c-6-4.622-14.137-6-17.822-5.329s-4.054,2.114-1.1,2.064,8.767-.362,21.21,6.909c0,0,2.163,2.73,1.431,8.619-1.809-2.928-5.1-4.935-8.027-6.58a43.688,43.688,0,0,0-9.375-4.178c-.584-.165-1.76-.469-2.253.049s-.058,1.332.411,1.711a11.39,11.39,0,0,0,3.372,1.645c1.554.51,3.076,1.2,4.581,1.859a48.468,48.468,0,0,1,7.319,3.627c1.242.822,2.911,5.28,1.447,9.236-3.133-1.645-8.841-7.961-13.9-9.047s.444,1.719,4.038,4.507c3.092,2.4,8.52,7.221,8.52,7.221a83.619,83.619,0,0,1-5.033,9.392,31.861,31.861,0,0,1-10.264-3.224s-.189-10.56-2.319-12.221-1.464,2.73-.387,6.736,1.308,5.477,1.308,5.477-10.486-1.365-13.471-5.963c.518-2.064,2.467-7.246,3.684-10.733,1.25-3.668,3.076-6.489,2.163-7.492s-2.944,1.6-4.778,4.992a42.842,42.842,0,0,0-3.684,10.914s-6.53-3.536-8.282-6.283c-.822-6.777,4.564-12.476,5.584-13.266s.567-4.507-4.342-1.193a10.815,10.815,0,0,0-4.934,9.047s-4.934-2.114-5.6-7.131C77.853,360.814,83.035,354.539,94.359,355.978Z" transform="translate(-31.925 -317.329)"/><path class="u" d="M54.489,337.038c4.934-.987,12.114,0,15.922,3.939s4.2,8.874,3.24,11.448-2.467-3.791-6.423-6.728-5.757-2.624-2.393.485,7.829,8.874,8.586,12.625-2.648,8.06-3.783,7.8.066-4.153-1.916-9.557-5.757-8.882-8.627-9.647-2.13.164,1.785,4.31,8.578,12.674,6.949,16.844-5.757,5.683-6.834,5.346,1.439-5.576-.888-12.2-6.99-11.193-9.359-9.655-.493,3.29,1.974,8.224,5.839,14.8,4.852,18.028-6.9,5.568-7.821,4.6,1.645-6.489,0-13.455-4.663-9.614-4.86-6.728S49,379.1,47.976,381.433s-11.793,6.259-11.793,6.259-5.864-6.826-6.258-8.915,4.342-10.749,7.015-13.258-.822-2.624-2.944-.9-6.867,8.043-7.155,11.251c-2.936-3.158-5.584-7.188-3.174-9.943s9.721-7.4,14.047-9.129,7.4-6.119,1.645-4.778-15.626,7.04-17.27,11.177c-.822-3.627-.239-13.883,6.061-15.791s12.969-1.645,14.927-2.41-.674-2.369-5.485-2.5-11.209.436-13.578,3.652c0-4.013.395-8.052,7.763-8.381s10.634,2.574,11.769,1.711-4.745-3.726-9.046-3.824a10.082,10.082,0,0,1,10.445-3.808,17.015,17.015,0,0,1,9.548,5.2Z" transform="translate(-21.794 -313.702)"/><path class="p" d="M88.884,315.372c1.291-3.627,6.579-5.05,9.194-4.013-2.722.781-4.934,3.068-3.438,2.336,3.174-1.53,5.173-2.237,8.931-1.645a6.341,6.341,0,0,1,4.877,3.94,22.739,22.739,0,0,0-7.673-.773c-1.234.115-4.49.757-.461.617,6.333-.222,8.775,1.974,8.775,1.974a8.577,8.577,0,0,1,2.467,4.532c-3.438-3.43-8.849-3.824-10.856-3.956s-3.783.979-.485,1.11,9.408,2.2,11.357,5.494.773,8.422.773,8.422-7.772-9.976-10.494-8.677c0,1.554,8.035,6.473,9.458,9.327S110.02,343,110.02,343s-7.3-.255-9.219-1.423-1.48-9.146-2.517-10.313-3.553,5-2.13,10.182c0,0-3.627.65-4.408-2.2s.395-8.808,1.949-11.514-1.036-2.073-2.336,0-2.961,6.621-2.467,9.59c0,0-4.277-1.818-5.444-4.013s2.591-8.3,4.54-9.869.123-2.722-1.818-1.168-5.05,6.226-5.313,8.553c-2.311-4-2.681-9.178.822-13.06C85.413,313.62,88.884,315.372,88.884,315.372Z" transform="translate(-31.969 -310.048)"/><path class="v" d="M88.884,315.372c1.291-3.627,6.579-5.05,9.194-4.013-2.722.781-4.934,3.068-3.438,2.336,3.174-1.53,5.173-2.237,8.931-1.645a6.341,6.341,0,0,1,4.877,3.94,22.739,22.739,0,0,0-7.673-.773c-1.234.115-4.49.757-.461.617,6.333-.222,8.775,1.974,8.775,1.974a8.577,8.577,0,0,1,2.467,4.532c-3.438-3.43-8.849-3.824-10.856-3.956s-3.783.979-.485,1.11,9.408,2.2,11.357,5.494.773,8.422.773,8.422-7.772-9.976-10.494-8.677c0,1.554,8.035,6.473,9.458,9.327S110.02,343,110.02,343s-7.3-.255-9.219-1.423-1.48-9.146-2.517-10.313-3.553,5-2.13,10.182c0,0-3.627.65-4.408-2.2s.395-8.808,1.949-11.514-1.036-2.073-2.336,0-2.961,6.621-2.467,9.59c0,0-4.277-1.818-5.444-4.013s2.591-8.3,4.54-9.869.123-2.722-1.818-1.168-5.05,6.226-5.313,8.553c-2.311-4-2.681-9.178.822-13.06C85.413,313.62,88.884,315.372,88.884,315.372Z" transform="translate(-31.969 -310.048)"/></g></g></g></svg>