<svg xmlns="http://www.w3.org/2000/svg" width="25" height="23.439" viewBox="0 0 25 23.439"><defs><style>.a{fill:#eceff1;}.b{fill:#388e3c;}.c{fill:#2e7d32;}.d{fill:#fafafa;}</style></defs><g transform="translate(0 -15.989)"><path class="a" d="M267.719,97.2H256.781a.782.782,0,0,1-.781-.781V80.792a.782.782,0,0,1,.781-.781h10.938a.782.782,0,0,1,.781.781V96.417A.782.782,0,0,1,267.719,97.2Z" transform="translate(-243.5 -60.895)"/><g transform="translate(12.5 22.24)"><path class="b" d="M259.906,145.574h-3.125a.781.781,0,0,1,0-1.562h3.125a.781.781,0,0,1,0,1.563Z" transform="translate(-256 -144.011)"/><path class="b" d="M259.906,209.574h-3.125a.781.781,0,0,1,0-1.562h3.125a.781.781,0,0,1,0,1.563Z" transform="translate(-256 -204.886)"/><path class="b" d="M259.906,273.573h-3.125a.781.781,0,0,1,0-1.562h3.125a.781.781,0,0,1,0,1.563Z" transform="translate(-256 -265.761)"/><path class="b" d="M259.906,337.573h-3.125a.781.781,0,0,1,0-1.562h3.125a.781.781,0,0,1,0,1.563Z" transform="translate(-256 -326.636)"/><path class="b" d="M386.344,145.574h-1.562a.781.781,0,0,1,0-1.562h1.563a.781.781,0,0,1,0,1.563Z" transform="translate(-377.75 -144.011)"/><path class="b" d="M386.344,209.574h-1.562a.781.781,0,0,1,0-1.562h1.563a.781.781,0,0,1,0,1.563Z" transform="translate(-377.75 -204.886)"/><path class="b" d="M386.344,273.573h-1.562a.781.781,0,0,1,0-1.562h1.563a.781.781,0,0,1,0,1.563Z" transform="translate(-377.75 -265.761)"/><path class="b" d="M386.344,337.573h-1.562a.781.781,0,0,1,0-1.562h1.563a.781.781,0,0,1,0,1.563Z" transform="translate(-377.75 -326.636)"/></g><path class="c" d="M13.78,16.17A.768.768,0,0,0,13.137,16L.637,18.348A.779.779,0,0,0,0,19.115V36.3a.78.78,0,0,0,.637.767l12.5,2.344a.735.735,0,0,0,.144.014.781.781,0,0,0,.781-.781V16.772A.779.779,0,0,0,13.78,16.17Z" transform="translate(0 0)"/><path class="d" d="M86.822,167.324l-2.47-2.823,2.5-3.212a.782.782,0,1,0-1.233-.961L83.3,163.3l-1.95-2.228a.781.781,0,1,0-1.175,1.028l2.148,2.456-2.178,2.8a.782.782,0,0,0,1.234.959l1.992-2.562,2.272,2.6a.78.78,0,1,0,1.175-1.027Z" transform="translate(-76.078 -137.004)"/></g></svg>